<?xml version="1.0" standalone="no"?>
<!DOCTYPE svg PUBLIC "-//W3C//DTD SVG 20010904//EN"
 "http://www.w3.org/TR/2001/REC-SVG-20010904/DTD/svg10.dtd">
<svg version="1.0" xmlns="http://www.w3.org/2000/svg"
 width="700.000000pt" height="700.000000pt" viewBox="0 0 700.000000 700.000000"
 preserveAspectRatio="xMidYMid meet">
<metadata>
Created by potrace 1.14, written by Peter Selinger 2001-2017
</metadata>
<g transform="translate(0.000000,700.000000) scale(0.100000,-0.100000)"
fill="#000000" stroke="none">
<path d="M1769 5215 c-157 -50 -243 -188 -256 -410 -20 -360 153 -555 469
-524 92 9 173 39 226 85 l42 36 0 184 0 184 -175 0 -175 0 0 -65 0 -65 95 0
95 0 0 -94 0 -94 -46 -22 c-33 -17 -64 -22 -117 -23 -118 0 -184 46 -226 158
-17 46 -21 79 -21 189 0 195 31 279 120 324 61 30 150 30 205 -1 37 -21 72
-72 89 -129 5 -15 18 -18 82 -18 l77 0 -7 38 c-16 102 -72 179 -162 223 -61
30 -77 34 -168 36 -68 2 -116 -2 -147 -12z"/>
<path d="M2430 4755 l0 -465 80 0 80 0 0 327 c0 241 3 324 11 316 6 -6 100
-152 208 -325 l197 -313 82 -3 82 -3 0 466 0 465 -80 0 -80 0 -2 -327 -3 -327
-205 327 -205 327 -82 0 -83 0 0 -465z"/>
<path d="M3472 4763 c-95 -252 -172 -462 -172 -466 0 -4 37 -7 82 -5 l82 3 35
103 36 102 184 -2 184 -3 35 -102 34 -103 85 0 c76 0 84 2 79 18 -3 9 -82 217
-175 462 l-168 445 -74 3 -74 3 -173 -458z m312 70 c31 -90 59 -170 62 -178 5
-13 -12 -15 -125 -15 -72 0 -131 3 -131 8 0 22 124 362 130 355 4 -4 33 -81
64 -170z"/>
<path d="M4162 5208 c3 -7 52 -217 109 -466 l104 -453 79 3 79 3 88 328 c48
181 89 330 91 332 2 2 37 -125 78 -283 41 -158 80 -308 88 -334 l14 -48 77 0
77 0 103 448 c56 246 105 455 107 465 5 15 -3 17 -75 17 -75 0 -81 -1 -86 -22
-3 -13 -34 -167 -70 -342 -36 -176 -67 -321 -69 -323 -2 -2 -38 135 -80 304
-42 169 -81 325 -87 346 l-10 37 -68 0 -68 0 -81 -324 c-45 -178 -85 -333 -90
-345 -6 -17 -27 68 -76 311 -38 183 -71 339 -73 346 -4 8 -30 12 -85 12 -60 0
-79 -3 -76 -12z"/>
<path d="M1507 4063 c-4 -3 -7 -105 -7 -225 l0 -218 835 0 835 0 -2 223 -3
222 -826 3 c-454 1 -829 -1 -832 -5z"/>
<path d="M3253 4053 c3 -5 154 -273 337 -598 293 -521 331 -593 323 -615 -6
-14 -159 -288 -341 -608 -183 -321 -332 -588 -332 -593 0 -6 136 -8 333 -7
l332 3 203 410 204 410 206 -412 207 -413 334 0 c304 0 333 1 327 16 -4 9
-159 285 -346 614 l-340 596 335 595 c184 327 335 597 335 602 0 4 -149 7
-330 7 l-331 0 -198 -402 -198 -403 -198 403 -198 402 -334 0 c-184 0 -332 -3
-330 -7z"/>
<path d="M1502 2888 l3 -223 833 -3 832 -2 0 225 0 225 -835 0 -835 0 2 -222z"/>
<path d="M1500 1860 l0 -220 835 0 835 0 0 220 0 220 -835 0 -835 0 0 -220z"/>
</g>
</svg>
