<svg width="800" height="800" viewBox="0 0 800 800" fill="none" xmlns="http://www.w3.org/2000/svg">
<rect width="800" height="800" rx="89" fill="#FDD231"/>
<rect x="86" y="106" width="596" height="588" fill="#FDD231"/>
<path d="M257.645 296.157C253.787 301.187 248.44 304.995 241.604 307.583C234.769 310.171 227.005 311.465 218.313 311.465C209.378 311.465 201.468 309.438 194.583 305.386C187.698 301.333 182.376 295.547 178.616 288.027C174.905 280.459 172.977 271.646 172.83 261.587V253.237C172.83 237.124 176.688 224.551 184.402 215.518C192.117 206.436 202.884 201.895 216.702 201.895C228.567 201.895 237.991 204.824 244.974 210.684C251.956 216.543 256.155 224.99 257.571 236.025H239.407C237.356 223.184 229.91 216.763 217.068 216.763C208.768 216.763 202.444 219.766 198.099 225.771C193.802 231.729 191.58 240.493 191.434 252.065V260.269C191.434 271.792 193.851 280.752 198.685 287.148C203.567 293.496 210.33 296.67 218.973 296.67C228.445 296.67 235.184 294.521 239.188 290.225V269.351H217.215V255.288H257.645V296.157ZM362.601 310H344.07L296.536 234.341V310H278.006V203.359H296.536L344.217 279.312V203.359H362.601V310ZM445.511 285.171H404.202L395.56 310H376.297L416.58 203.359H433.206L473.562 310H454.227L445.511 285.171ZM409.402 270.229H440.311L424.856 225.991L409.402 270.229ZM566.434 283.633L582.84 203.359H601.224L576.614 310H558.89L538.602 232.144L517.874 310H500.076L475.467 203.359H493.851L510.403 283.486L530.765 203.359H546.292L566.434 283.633Z" fill="black"/>
<path d="M492.926 428.239L538.248 336.071H614.61L537.105 473.561L616.705 613.336H539.581L492.926 519.454L446.271 613.336H369.337L448.746 473.561L371.432 336.071H447.604L492.926 428.239Z" fill="black"/>
<rect x="172" y="561.851" width="190" height="51.1136" fill="black"/>
<rect x="172" y="444.59" width="190" height="51.1136" fill="black"/>
<rect x="172" y="335.347" width="190" height="51.1136" fill="black"/>
</svg>
